<svg xmlns="http://www.w3.org/2000/svg" width="1400" height="850" viewBox="0 0 1400 850" role="img" aria-labelledby="title desc">
<title id="title">Ideogram 4.0 architecture</title>
<desc id="desc">Source-based reconstruction. docs/model_architecture.md: hidden layers (0,3,…,33,35) concatenated; 34 single-stream blocks; AdaLN timestep, QK-RMSNorm, 3D MRoPE, SwiGLU; Euler asymmetric CFG; VAE decode</desc>
<defs><marker id="arrow" markerWidth="8" markerHeight="8" refX="7" refY="4" orient="auto-start-reverse"><path d="M0 0 L8 4 L0 8 Z" fill="#475569"/></marker></defs>
<rect width="1400" height="850" fill="#ffffff"/>
<g font-family="Arial, Helvetica, sans-serif">
<text x="32" y="67" font-size="12" fill="#64748b">Architecture reconstructed from the cited primary source</text>
<text x="32" y="39" font-size="25" font-weight="700" fill="#0f172a">Ideogram 4.0</text>
<rect x="760" y="150" width="340" height="485" rx="5" fill="#f7f1e8" stroke="#94a3b8" stroke-width="1.4" stroke-dasharray="7 5"/>
<text x="774" y="173" font-size="15" font-weight="600" fill="#334155">Ideogram4Transformer • single stream</text>
<polyline points="137.5,230.0 137.5,300.0" fill="none" stroke="#475569" stroke-width="2" marker-end="url(#arrow)"/>
<polyline points="235.0,372.5 262.5,372.5 262.5,365.0 290.0,365.0" fill="none" stroke="#475569" stroke-width="2" marker-end="url(#arrow)"/>
<polyline points="500,365 637,365 637,490" fill="none" stroke="#475569" stroke-width="2" marker-end="url(#arrow)"/>
<polyline points="235,635 535,635 535,590" fill="none" stroke="#475569" stroke-width="2" marker-end="url(#arrow)"/>
<polyline points="740.0,560.0 765.0,560.0 765.0,432.5 790.0,432.5" fill="none" stroke="#475569" stroke-width="2" marker-end="url(#arrow)"/>
<polyline points="935.0,670.0 932.5,605.0" fill="none" stroke="#475569" stroke-width="2" marker-end="url(#arrow)"/>
<polyline points="1075.0,432.5 1102.5,432.5 1102.5,320.0 1130.0,320.0" fill="none" stroke="#475569" stroke-width="2" marker-end="url(#arrow)"/>
<text x="1102.5" y="366.25" text-anchor="middle" font-size="13" fill="#475569" stroke="#ffffff" stroke-width="5" paint-order="stroke">velocity</text>
<polyline points="1242.5,375.0 1242.5,455.0" fill="none" stroke="#475569" stroke-width="2" marker-end="url(#arrow)"/>
<text x="1242.5" y="405.0" text-anchor="middle" font-size="13" fill="#475569" stroke="#ffffff" stroke-width="5" paint-order="stroke">final latents</text>
<polyline points="1242.5,600.0 1242.5,650.0" fill="none" stroke="#475569" stroke-width="2" marker-end="url(#arrow)"/>
<polyline points="1355,320 1380,320 1380,785 637,785 637,630" fill="none" stroke="#475569" stroke-width="2" marker-end="url(#arrow)"/>
<text x="1008.5" y="775.0" text-anchor="middle" font-size="13" fill="#475569" stroke="#ffffff" stroke-width="5" paint-order="stroke">next step</text>
<rect x="50.0" y="150" width="24.166666666666668" height="30" rx="3" fill="#e0f2fe" stroke="#0284c7" stroke-width="1.3"/>
<rect x="80.16666666666667" y="150" width="24.166666666666668" height="30" rx="3" fill="#e0f2fe" stroke="#0284c7" stroke-width="1.3"/>
<rect x="110.33333333333334" y="150" width="24.166666666666668" height="30" rx="3" fill="#e0f2fe" stroke="#0284c7" stroke-width="1.3"/>
<text x="122.41666666666667" y="170" font-family="Georgia,serif" font-size="15" text-anchor="middle" fill="#0284c7">⋯</text>
<rect x="140.5" y="150" width="24.166666666666668" height="30" rx="3" fill="#e0f2fe" stroke="#0284c7" stroke-width="1.3"/>
<text x="152.58333333333334" y="170" font-family="Georgia,serif" font-size="15" text-anchor="middle" fill="#0284c7">⋯</text>
<rect x="170.66666666666669" y="150" width="24.166666666666668" height="30" rx="3" fill="#e0f2fe" stroke="#0284c7" stroke-width="1.3"/>
<rect x="200.83333333333334" y="150" width="24.166666666666668" height="30" rx="3" fill="#e0f2fe" stroke="#0284c7" stroke-width="1.3"/>
<text x="137.5" y="205" text-anchor="middle" font-size="14" font-weight="500" fill="#111827">Text prompt</text>
<polygon points="48,306 227,306 180.4,385 94.60000000000001,385" fill="#ede9fe" stroke="#7c3aed" stroke-width="1.6"/>
<text x="137.5" y="408" text-anchor="middle" font-size="14" font-weight="500" fill="#111827">Frozen Qwen3-VL-8B</text>
<text x="137.5" y="426" text-anchor="middle" font-size="14" font-weight="500" fill="#111827">Instruct encoder</text>
<rect x="300.0" y="310" width="26.666666666666668" height="30" rx="3" fill="#fef3c7" stroke="#d97706" stroke-width="1.3"/>
<rect x="332.6666666666667" y="310" width="26.666666666666668" height="30" rx="3" fill="#fef3c7" stroke="#d97706" stroke-width="1.3"/>
<rect x="365.33333333333337" y="310" width="26.666666666666668" height="30" rx="3" fill="#fef3c7" stroke="#d97706" stroke-width="1.3"/>
<text x="378.6666666666667" y="330" font-family="Georgia,serif" font-size="15" text-anchor="middle" fill="#d97706">⋯</text>
<rect x="398.0" y="310" width="26.666666666666668" height="30" rx="3" fill="#fef3c7" stroke="#d97706" stroke-width="1.3"/>
<text x="411.3333333333333" y="330" font-family="Georgia,serif" font-size="15" text-anchor="middle" fill="#d97706">⋯</text>
<rect x="430.6666666666667" y="310" width="26.666666666666668" height="30" rx="3" fill="#fef3c7" stroke="#d97706" stroke-width="1.3"/>
<rect x="463.33333333333337" y="310" width="26.666666666666668" height="30" rx="3" fill="#fef3c7" stroke="#d97706" stroke-width="1.3"/>
<text x="395.0" y="365" text-anchor="middle" font-size="14" font-weight="500" fill="#111827">Layers 0,3,…,33,35</text>
<text x="395.0" y="383" text-anchor="middle" font-size="14" font-weight="500" fill="#111827">Concatenate features</text>
<rect x="99.5" y="589" width="86" height="55" fill="#fef3c7" stroke="#d97706" stroke-width="1.1"/>
<rect x="94.5" y="584" width="86" height="55" fill="#fef3c7" stroke="#d97706" stroke-width="1.1"/>
<rect x="89.5" y="579" width="86" height="55" fill="#fef3c7" stroke="#d97706" stroke-width="1.1"/>
<path d="M106.7 579 v55 M89.5 590.0 h86" stroke="#d97706" stroke-width="0.55" opacity="0.55"/>
<path d="M123.9 579 v55 M89.5 601.0 h86" stroke="#d97706" stroke-width="0.55" opacity="0.55"/>
<path d="M141.1 579 v55 M89.5 612.0 h86" stroke="#d97706" stroke-width="0.55" opacity="0.55"/>
<path d="M158.3 579 v55 M89.5 623.0 h86" stroke="#d97706" stroke-width="0.55" opacity="0.55"/>
<text x="137.5" y="668" text-anchor="middle" font-size="14" font-weight="500" fill="#111827">Image latent noise</text>
<rect x="545.0" y="500" width="25.833333333333332" height="30" rx="3" fill="#fef3c7" stroke="#d97706" stroke-width="1.3"/>
<rect x="576.8333333333334" y="500" width="25.833333333333332" height="30" rx="3" fill="#fef3c7" stroke="#d97706" stroke-width="1.3"/>
<rect x="608.6666666666666" y="500" width="25.833333333333332" height="30" rx="3" fill="#fef3c7" stroke="#d97706" stroke-width="1.3"/>
<text x="621.5833333333333" y="520" font-family="Georgia,serif" font-size="15" text-anchor="middle" fill="#d97706">⋯</text>
<rect x="640.5" y="500" width="25.833333333333332" height="30" rx="3" fill="#fef3c7" stroke="#d97706" stroke-width="1.3"/>
<text x="653.4166666666666" y="520" font-family="Georgia,serif" font-size="15" text-anchor="middle" fill="#d97706">⋯</text>
<rect x="672.3333333333334" y="500" width="25.833333333333332" height="30" rx="3" fill="#fef3c7" stroke="#d97706" stroke-width="1.3"/>
<rect x="704.1666666666666" y="500" width="25.833333333333332" height="30" rx="3" fill="#fef3c7" stroke="#d97706" stroke-width="1.3"/>
<text x="637.5" y="555" text-anchor="middle" font-size="14" font-weight="500" fill="#111827">Text + image tokens</text>
<text x="637.5" y="573" text-anchor="middle" font-size="14" font-weight="500" fill="#111827">Single sequence</text>
<rect x="798" y="268" width="277" height="337" rx="4" fill="#dbeafe" stroke="#2563eb" stroke-width="1.2"/>
<rect x="794" y="264" width="277" height="337" rx="4" fill="#dbeafe" stroke="#2563eb" stroke-width="1.2"/>
<rect x="790" y="260" width="277" height="337" rx="4" fill="#dbeafe" stroke="#2563eb" stroke-width="1.2"/>
<rect x="808" y="306" width="241" height="45" rx="3" fill="#ffffff" stroke="#2563eb" stroke-width="0.9"/>
<text x="928.5" y="332.5" text-anchor="middle" font-size="12" fill="#1f2937">AdaLN from timestep</text>
<rect x="808" y="356" width="241" height="45" rx="3" fill="#ffffff" stroke="#2563eb" stroke-width="0.9"/>
<text x="928.5" y="382.5" text-anchor="middle" font-size="12" fill="#1f2937">QK-RMSNorm attention</text>
<rect x="808" y="406" width="241" height="45" rx="3" fill="#ffffff" stroke="#2563eb" stroke-width="0.9"/>
<text x="928.5" y="432.5" text-anchor="middle" font-size="12" fill="#1f2937">3D MRoPE positions</text>
<rect x="808" y="456" width="241" height="45" rx="3" fill="#ffffff" stroke="#2563eb" stroke-width="0.9"/>
<text x="928.5" y="482.5" text-anchor="middle" font-size="12" fill="#1f2937">SwiGLU MLP</text>
<rect x="808" y="506" width="241" height="45" rx="3" fill="#ffffff" stroke="#2563eb" stroke-width="0.9"/>
<text x="928.5" y="532.5" text-anchor="middle" font-size="12" fill="#1f2937">Final velocity projection</text>
<text x="932.5" y="285" text-anchor="middle" font-size="14" font-weight="500" fill="#111827">34 transformer blocks</text>
<rect x="795" y="670" width="280" height="85" rx="4" fill="#e0f2fe" stroke="#0284c7" stroke-width="1.4"/>
<text x="935.0" y="717.5" text-anchor="middle" font-size="14" font-weight="500" fill="#111827">Timestep embedding</text>
<rect x="1130" y="265" width="225" height="110" rx="4" fill="#dbeafe" stroke="#2563eb" stroke-width="1.4"/>
<text x="1242.5" y="325.0" text-anchor="middle" font-size="14" font-weight="500" fill="#111827">Euler + asymmetric CFG</text>
<polygon points="1193.0,461 1292.0,461 1347,558 1138,558" fill="#ccfbf1" stroke="#0d9488" stroke-width="1.6"/>
<text x="1242.5" y="581" text-anchor="middle" font-size="14" font-weight="500" fill="#111827">Frozen KL VAE decoder</text>
<rect x="1187.5" y="658" width="110" height="70" fill="#dcfce7" stroke="#16a34a" stroke-width="1.3"/>
<circle cx="1268.9" cy="676.2" r="7.0" fill="#16a34a" opacity="0.55"/>
<path d="M1195.5 721 L1227.1 682.5 L1251.3 708.4 L1266.7 693.0 L1290.5 721 Z" fill="#16a34a" opacity="0.35"/>
<text x="1242.5" y="753" text-anchor="middle" font-size="14" font-weight="500" fill="#111827">Generated image</text>
</g></svg>
